<?xml version="1.0" encoding="utf-8"?>
<!-- Generator: Adobe Illustrator 17.0.0, SVG Export Plug-In . SVG Version: 6.00 Build 0)  -->
<!DOCTYPE svg PUBLIC "-//W3C//DTD SVG 1.1//EN" "http://www.w3.org/Graphics/SVG/1.1/DTD/svg11.dtd">
<svg version="1.1" id="Layer_1" xmlns="http://www.w3.org/2000/svg" xmlns:xlink="http://www.w3.org/1999/xlink" x="0px" y="0px"
	 width="381px" height="153px" viewBox="0 0 381 153" enable-background="new 0 0 381 153" xml:space="preserve">
<path fill-rule="evenodd" clip-rule="evenodd" fill="#FFFFFF" d="M66.25,78.08c0-9.15-0.75-15.89-2.27-20.25
	c-1.51-4.31-4.64-7.97-9.39-10.88s-10.8-4.36-18.09-4.36c-5.4,0-10.21,0.97-14.36,2.85c-4.16,1.94-7.4,4.53-9.72,7.81
	c-2.38,3.34-3.78,6.79-4.22,10.34c-0.48,3.56-0.7,8.94-0.7,16.11v28.97c0,9.75,0.76,17.02,2.27,21.87c1.51,4.85,4.64,8.62,9.4,11.36
	c4.75,2.75,10.74,4.1,18.03,4.1c7.02,0,12.91-1.73,17.66-5.17c4.75-3.45,7.88-7.49,9.29-12.12c1.4-4.58,2.1-12.39,2.1-23.38v-4.14
	H42.06v13.73c0,6.03-0.32,9.8-0.97,11.42c-0.65,1.61-2.05,2.42-4.16,2.42c-2.27,0-3.67-0.7-4.32-2.15
	c-0.65-1.46-0.92-4.58-0.92-9.37V71.73c0-4.96,0.27-8.14,0.92-9.65c0.65-1.5,2.11-2.26,4.48-2.26c2.06,0,3.41,0.65,4.05,1.83
	c0.6,1.19,0.92,4.21,0.92,9.05v16.7h24.19V78.08z M77.74,42.59V146h41.47v-20.68h-17.28V42.59H77.74z M129.58,42.59V146h24.19V42.59
	H129.58z M198.34,61.49c1.35,1.13,2.06,3.56,2.06,7.22v8.89c0,3.98-0.6,6.62-1.73,7.91c-1.19,1.3-3.24,1.89-6.27,1.89
	c-0.64,0-1.45,0-2.37-0.05V59.82C194.24,59.82,196.99,60.42,198.34,61.49z M165.84,146h24.19v-41.37h7.23
	c5.84,0,10.59-0.8,14.26-2.42s6.16-3.99,7.56-7c1.35-3.02,2.05-7.86,2.05-14.49v-9.05c0-6.46-0.38-11.25-1.02-14.38
	c-0.65-3.12-1.95-5.76-3.84-7.97c-1.89-2.15-4.7-3.82-8.48-5.01c-3.78-1.13-9.12-1.72-16.09-1.72h-25.86V146z M229.2,42.59v20.68
	h20.74V146h24.19V63.27h17.28V42.59H229.2z"/>
<path fill-rule="evenodd" clip-rule="evenodd" fill="none" stroke="#FFFFFF" stroke-width="4.5" stroke-linecap="round" stroke-linejoin="round" stroke-miterlimit="10" d="
	M296.05,102.13c0,21.34,17.12,38.64,38.24,38.64s38.24-17.3,38.24-38.64c0-19.68-14.57-35.93-33.4-38.33V51.2h15.22v-8.03h-40.61
	v8.03h14.74v12.74C310.11,66.76,296.05,82.79,296.05,102.13z"/>
<path fill-rule="evenodd" clip-rule="evenodd" fill="#FFFFFF" d="M348.62,92.36c-2.76-10.26-12.1-17.82-23.19-17.82
	c-12.83,0-23.31,10.1-23.99,22.8c1.68,0.87,3.32,1.58,4.93,2.15c-0.02-0.24-0.04-0.49-0.04-0.73c0-4.02,3.31-7.28,7.38-7.28
	c4.08,0,7.38,3.26,7.38,7.28c0,0.92-0.17,1.8-0.49,2.61c3.64,0.24,7.73-0.99,10.08-2.37v-0.24c0-4.02,3.3-7.28,7.38-7.28
	c1.92,0,3.67,0.73,4.98,1.91C344.73,92.93,346.6,92.55,348.62,92.36z M318.33,86.28c0-4.09,3.25-7.41,7.25-7.41s7.25,3.32,7.25,7.41
	c0,4.09-3.25,7.4-7.25,7.4S318.33,90.37,318.33,86.28z"/>
<path fill-rule="evenodd" clip-rule="evenodd" fill="#FDBF00" d="M326.62,29.82c0-4.04,3.26-7.31,7.27-7.31
	c4.02,0,7.27,3.27,7.27,7.31s-3.25,7.32-7.27,7.32C329.88,37.14,326.62,33.86,326.62,29.82z"/>
<path fill-rule="evenodd" clip-rule="evenodd" fill="#FFD24D" d="M297.78,17.55c0-6.39,5.15-11.56,11.49-11.56
	c6.35,0,11.49,5.17,11.49,11.56s-5.14,11.56-11.49,11.56C302.93,29.11,297.78,23.94,297.78,17.55z"/>
<path fill-rule="evenodd" clip-rule="evenodd" fill="#FFD33D" d="M301.07,102.33c0.12,18.52,14.97,33.52,33.38,33.79v-33.79
	C334.45,102.33,319.35,112.05,301.07,102.33z"/>
<path fill-rule="evenodd" clip-rule="evenodd" fill="#FBBE04" d="M334.25,136.12c18.52-0.12,33.52-15.18,33.64-33.79
	c-16.88-11.28-33.64,0-33.64,0V136.12z"/>
</svg>
